<?xml version="1.0" encoding="UTF-8" standalone="no"?>
<!-- Created with Inkscape (http://www.inkscape.org/) -->

<svg
   xmlns:dc="http://purl.org/dc/elements/1.1/"
   xmlns:cc="http://creativecommons.org/ns#"
   xmlns:rdf="http://www.w3.org/1999/02/22-rdf-syntax-ns#"
   xmlns:svg="http://www.w3.org/2000/svg"
   xmlns="http://www.w3.org/2000/svg"
   xmlns:sodipodi="http://sodipodi.sourceforge.net/DTD/sodipodi-0.dtd"
   xmlns:inkscape="http://www.inkscape.org/namespaces/inkscape"
   width="113.83459mm"
   height="27.298294mm"
   viewBox="0 0 159.36844 81.075933"
   version="1.1"
   id="svg8"
   sodipodi:docname="pointillism-404.svg"
   inkscape:version="0.92.4 (fd57863, 2020-04-02)">
  <defs
     id="defs2" />
  <sodipodi:namedview
     id="base"
     pagecolor="#ffffff"
     bordercolor="#666666"
     borderopacity="1.0"
     inkscape:pageopacity="0.0"
     inkscape:pageshadow="2"
     inkscape:zoom="3.7218445"
     inkscape:cx="110.12921"
     inkscape:cy="-72.298855"
     inkscape:document-units="mm"
     inkscape:current-layer="layer1"
     showgrid="false"
     inkscape:window-width="3365"
     inkscape:window-height="1604"
     inkscape:window-x="75"
     inkscape:window-y="335"
     inkscape:window-maximized="0"
     fit-margin-top="0"
     fit-margin-left="0"
     fit-margin-right="0"
     fit-margin-bottom="0" />
  <metadata
     id="metadata5">
    <rdf:RDF>
      <cc:Work
         rdf:about="">
        <dc:format>image/svg+xml</dc:format>
        <dc:type
           rdf:resource="http://purl.org/dc/dcmitype/StillImage" />
        <dc:title></dc:title>
      </cc:Work>
    </rdf:RDF>
  </metadata>
  <a href="http://pointillism.necessaryeval.com/">
  <g
     inkscape:label="Layer 1"
     inkscape:groupmode="layer"
     id="layer1"
     transform="translate(28.389847,0.06726563)">
    <text
       xml:space="preserve"
       style="font-style:normal;font-variant:normal;font-weight:normal;font-stretch:normal;font-size:18.20150185px;line-height:1.25;font-family:Likhan;-inkscape-font-specification:Likhan;letter-spacing:0px;word-spacing:0px;fill:#000000;fill-opacity:1;stroke:none;stroke-width:0.26458332"
       x="-71.745827"
       y="57.116554"
       id="text3723"><tspan
         sodipodi:role="line"
         id="tspan3721"
         x="-71.745827"
         y="57.116554"
         style="font-style:normal;font-variant:normal;font-weight:normal;font-stretch:normal;font-size:18.20150185px;font-family:Likhan;-inkscape-font-specification:Likhan;fill:#0000ff;stroke-width:0.26458332">please confirm your             link.</tspan></text>
    <text
       xml:space="preserve"
       style="font-style:normal;font-variant:normal;font-weight:normal;font-stretch:normal;font-size:34.12781525px;line-height:1.25;font-family:Likhan;-inkscape-font-specification:Likhan;letter-spacing:0px;word-spacing:0px;fill:#ffdd55;fill-opacity:1;stroke:none;stroke-width:0.26458332"
       x="-71.785797"
       y="34.814255"
       id="text3727-3"><tspan
         sodipodi:role="line"
         id="tspan3725-3"
         x="-71.785797"
         y="34.814255"
         style="font-style:normal;font-variant:normal;font-weight:normal;font-stretch:normal;font-family:Likhan;-inkscape-font-specification:Likhan;fill:#ffdd55;stroke-width:0.26458332">not found.</tspan></text>
    <path
       inkscape:connector-curvature="0"
       style="fill:#ffdd55;stroke-width:0.26458332"
       inkscape:transform-center-x="-0.22045121"
       inkscape:transform-center-y="-1.0902481"
       d="m -77.761392,34.622169 c -0.647389,1.199863 -26.540698,1.946108 -27.256098,0.785521 -0.71543,-1.160586 11.584955,-23.957978 12.947767,-23.997255 1.362781,-0.03928 14.95572,22.011871 14.308331,23.211734 z"
       id="path4633" />
    <path
       style="fill:#000000;fill-opacity:1;stroke-width:0.26458332"
       d="m -94.005108,10.390983 c -1.362813,0.03928 -13.663292,22.837197 -12.947892,23.99779 0.71542,1.160587 26.608192,0.414987 27.255577,-0.784879 0.647396,-1.199857 -12.944873,-23.252184 -14.307685,-23.212911 z m -0.06675,1.413104 c 1.184842,-0.03524 13.002511,19.753205 12.439657,20.829963 -0.562854,1.076758 -23.074139,1.746407 -23.696149,0.704892 -0.622,-1.041513 10.071649,-21.499609 11.256492,-21.534855 z"
       id="path4633-1"
       inkscape:connector-curvature="0" />
    <g
       aria-label="!"
       style="font-style:normal;font-variant:normal;font-weight:normal;font-stretch:normal;font-size:10.58333302px;line-height:1.25;font-family:Likhan;-inkscape-font-specification:Likhan;letter-spacing:0px;word-spacing:0px;fill:#ffdd55;fill-opacity:1;stroke:none;stroke-width:0.08204959"
       id="text3772-3"
       transform="matrix(2.5771412,0,0,1.9713337,-216.19891,-99.282385)">
      <path
         d="m 47.83144,65.140785 h -0.139526 l -0.09302,-1.147216 q -0.04651,-0.583944 -0.180868,-1.457276 -0.211873,-1.426269 -0.211873,-1.875854 0,-0.573609 0.325562,-0.754476 0.103352,-0.05684 0.237711,-0.05684 0.428915,0 0.532267,0.527099 0.02584,0.139527 0.02584,0.315227 0,0.144694 -0.02067,0.39274 z m -0.06201,0.821656 q 0.304891,0 0.475423,0.258382 0.09302,0.149861 0.09302,0.325561 0,0.315226 -0.268718,0.470256 -0.139526,0.07751 -0.310058,0.07751 -0.325562,0 -0.480591,-0.263549 -0.07235,-0.129192 -0.07235,-0.284221 0,-0.330729 0.258382,-0.496094 0.139527,-0.08785 0.304891,-0.08785 z"
         style="font-style:normal;font-variant:normal;font-weight:normal;font-stretch:normal;font-family:Likhan;-inkscape-font-specification:Likhan;fill:#ffdd55;stroke-width:0.08204959"
         id="path4716"
         inkscape:connector-curvature="0" />
    </g>
    <g
       aria-label="!"
       style="font-style:normal;font-variant:normal;font-weight:normal;font-stretch:normal;font-size:10.58333302px;line-height:1.25;font-family:Likhan;-inkscape-font-specification:Likhan;letter-spacing:0px;word-spacing:0px;fill:#000000;fill-opacity:1;stroke:none;stroke-width:0.08204959"
       id="text3772"
       transform="matrix(2.5771412,0,0,1.9713337,-216.19891,-99.282385)">
      <path
         d="m 47.547081,65.069695 h -0.139526 l -0.09302,-1.147217 q -0.04651,-0.583944 -0.180868,-1.457276 -0.211873,-1.426269 -0.211873,-1.875854 0,-0.573608 0.325562,-0.754476 0.103352,-0.05684 0.237711,-0.05684 0.428915,0 0.532267,0.5271 0.02584,0.139526 0.02584,0.315226 0,0.144694 -0.02067,0.392741 z m -0.06201,0.821655 q 0.304891,0 0.475423,0.258382 0.09302,0.149862 0.09302,0.325561 0,0.315227 -0.268717,0.470256 -0.139527,0.07752 -0.310059,0.07752 -0.325562,0 -0.480591,-0.26355 -0.07235,-0.129191 -0.07235,-0.284221 0,-0.330729 0.258382,-0.496093 0.139527,-0.08785 0.304891,-0.08785 z"
         style="font-style:normal;font-variant:normal;font-weight:normal;font-stretch:normal;font-family:Likhan;-inkscape-font-specification:Likhan;stroke-width:0.08204959"
         id="path4713"
         inkscape:connector-curvature="0" />
    </g>
    <text
       xml:space="preserve"
       style="font-style:normal;font-variant:normal;font-weight:normal;font-stretch:normal;font-size:34.12781525px;line-height:1.25;font-family:Likhan;-inkscape-font-specification:Likhan;letter-spacing:0px;word-spacing:0px;fill:#000000;fill-opacity:1;stroke:none;stroke-width:0.26458332"
       x="-73.407234"
       y="33.438839"
       id="text3727-3-0"><tspan
         sodipodi:role="line"
         id="tspan3725-3-8"
         x="-73.407234"
         y="33.438839"
         style="font-style:normal;font-variant:normal;font-weight:normal;font-stretch:normal;font-family:Likhan;-inkscape-font-specification:Likhan;stroke-width:0.26458332">not found.</tspan></text>
    <text
       xml:space="preserve"
       style="font-style:normal;font-variant:normal;font-weight:normal;font-stretch:normal;font-size:18.20150185px;line-height:1.25;font-family:Likhan;-inkscape-font-specification:Likhan;letter-spacing:0px;word-spacing:0px;fill:#000000;fill-opacity:1;stroke:none;stroke-width:0.26458332"
       x="82.380623"
       y="57.091541"
       id="text3723-1"><tspan
         sodipodi:role="line"
         id="tspan3721-5"
         x="82.380623"
         y="57.091541"
         style="font-style:normal;font-variant:normal;font-weight:normal;font-stretch:normal;font-size:18.20150185px;font-family:Likhan;-inkscape-font-specification:Likhan;fill:#000000;stroke-width:0.26458332">pointillism</tspan></text>
    <flowRoot
       xml:space="preserve"
       id="flowRoot4876"
       style="font-style:normal;font-weight:normal;font-size:40px;line-height:1.25;font-family:sans-serif;letter-spacing:0px;word-spacing:0px;fill:#000000;fill-opacity:1;stroke:none;stroke-width:0.31010872"
       transform="matrix(3.2246756,0,0,3.2246756,238.76005,-32.63597)"><flowRegion
         id="flowRegion4878"
         style="stroke-width:0.31010872"><rect
           id="rect4880"
           width="310.32999"
           height="43.79549"
           x="238.59137"
           y="291.21146"
           style="stroke-width:0.31010872" /></flowRegion><flowPara
         id="flowPara4882"
         style="stroke-width:0.31010872" /></flowRoot>  </g>
   </a>
</svg>
